# xmcd
#
# Track frame offsets:
#	150
#	20536
#	37832
#	54276
#	66157
#	85435
#	101076
#	118108
#	134081
#	151567
#	167864
#	183040
#	197443
#	215213
#	228867
#	246303
#	262088
#	275431
#	296661
#
# Disc length: 4162 seconds
#
# Revision: 0
# Processed by: cddbd v1.5.2PL0 Copyright (c) Steve Scherf et al.
# Submitted via: EasyCDDAExtractor 5.0.5.1
#
DISCID=14104013
DTITLE=Various Artist - HOTT COUNTRY # 129
DYEAR=1900
DGENRE=Country
TTITLE0=Rascal Flatts - LIFE IS A HIGHWAY
TTITLE1=Ashley Monroe - I DON'T WANT TO
TTITLE2=Gary Nichols - I CAN'T LOVE YOU ANYMORE
TTITLE3=Willie Nelson - SONGBIRD
TTITLE4=Brooks and Dunn - HILLBILLY DELUXE
TTITLE5=Gord Bamford - WE'RE ALL COWBOYS
TTITLE6=Lindsey Haun - BROKEN
TTITLE7=Doc Walker - Trying To Get Back To You
TTITLE8=Brian Littrell - WISH
TTITLE9=Josh Gracin - I KEEP COMING BACK
TTITLE10=Duane Steele - GHOST TOWN
TTITLE11=Megan Morrison - PARTY GIRL
TTITLE12=Keith Anderson - PODUNK
TTITLE13=After Tuesday - HELPLESSLY HOPING
TTITLE14=Gretchen Wilson Ft John Rich - COME TO BED
TTITLE15=Blaine Larsen - ROCKIN'  YOU TONIGHT
TTITLE16=Danielle Peck - ISN'T THAT EVERYTHING
TTITLE17=Lee Roy Parnell - DADDIES AND DAUGHTERS
TTITLE18=Dolly Parton and Ricky Van Shelton - ROCKIN' YEARS
EXTD=September 2006\n
EXTT0=
EXTT1=
EXTT2=
EXTT3=
EXTT4=
EXTT5=
EXTT6=
EXTT7=
EXTT8=
EXTT9=
EXTT10=
EXTT11=
EXTT12=
EXTT13=
EXTT14=
EXTT15=
EXTT16=
EXTT17=
EXTT18=
PLAYORDER=
